<svg width="29" height="29" viewBox="0 0 29 29" fill="none" xmlns="http://www.w3.org/2000/svg">
<path fill-rule="evenodd" clip-rule="evenodd" d="M23.2 3.86667H26.1C26.8691 3.86667 27.6068 4.1722 28.1506 4.71606C28.6945 5.25991 29 5.99754 29 6.76667V26.1C29 26.8691 28.6945 27.6068 28.1506 28.1506C27.6068 28.6945 26.8691 29 26.1 29H2.9C2.13087 29 1.39325 28.6945 0.84939 28.1506C0.305535 27.6068 0 26.8691 0 26.1L0 6.76667C0 5.99754 0.305535 5.25991 0.84939 4.71606C1.39325 4.1722 2.13087 3.86667 2.9 3.86667H5.8V0H7.73333V3.86667H21.2667V0H23.2V3.86667ZM11.6 15.4667H5.8V13.5333H11.6V15.4667ZM23.2 13.5333H17.4V15.4667H23.2V13.5333ZM11.6 21.2667H5.8V19.3333H11.6V21.2667ZM17.4 21.2667H23.2V19.3333H17.4V21.2667Z" fill="white"/>
</svg>
