<svg width="28" height="28" viewBox="0 0 28 28" fill="none" xmlns="http://www.w3.org/2000/svg">
<path d="M13.5625 9.04813C11.0631 9.04813 9.04813 11.0825 9.04813 13.5625C9.04813 16.0425 11.0825 18.0769 13.5625 18.0769C16.0425 18.0769 18.0769 16.0425 18.0769 13.5625C18.0769 11.0825 16.0425 9.04813 13.5625 9.04813ZM27.125 13.5625C27.125 11.6831 27.125 9.8425 27.0281 7.96313C26.9313 5.79313 26.4275 3.85563 24.8388 2.28625C23.25 0.6975 21.3319 0.19375 19.1619 0.0968749C17.2825 -9.38307e-08 15.4419 0 13.5625 0C11.6831 0 9.8425 -9.38307e-08 7.96313 0.0968749C5.79313 0.19375 3.85563 0.6975 2.28625 2.28625C0.6975 3.875 0.19375 5.79313 0.0968749 7.96313C-9.38308e-08 9.8425 0 11.6831 0 13.5625C0 15.4419 -9.38308e-08 17.2825 0.0968749 19.1619C0.19375 21.3319 0.6975 23.2694 2.28625 24.8387C3.875 26.4275 5.79313 26.9312 7.96313 27.0281C9.8425 27.125 11.6831 27.125 13.5625 27.125C15.4419 27.125 17.2825 27.125 19.1619 27.0281C21.3319 26.9312 23.2694 26.4275 24.8388 24.8387C26.4275 23.25 26.9313 21.3319 27.0281 19.1619C27.1444 17.3019 27.125 15.4419 27.125 13.5625ZM13.5625 20.5181C9.70688 20.5181 6.60687 17.4181 6.60687 13.5625C6.60687 9.70687 9.70688 6.60687 13.5625 6.60687C17.4181 6.60687 20.5181 9.70687 20.5181 13.5625C20.5181 17.4181 17.4181 20.5181 13.5625 20.5181ZM20.8088 7.94375C19.9175 7.94375 19.1812 7.22688 19.1812 6.31625C19.1812 5.40563 19.8981 4.68875 20.8088 4.68875C21.7194 4.68875 22.4363 5.40563 22.4363 6.31625C22.4412 6.52848 22.4024 6.73945 22.3224 6.93609C22.2424 7.13272 22.1229 7.31083 21.9713 7.45937C21.8227 7.61103 21.6446 7.73056 21.448 7.81055C21.2513 7.89053 21.0404 7.92928 20.8281 7.92438L20.8088 7.94375Z" fill="white"/>
</svg>
