<svg width="34" height="34" viewBox="0 0 34 34" fill="none" xmlns="http://www.w3.org/2000/svg">
<g id="material-symbols:reviews">
<path id="Vector" d="M2.83331 31.1663V5.66634C2.83331 4.88718 3.11098 4.21993 3.66631 3.66459C4.22165 3.10926 4.88842 2.83207 5.66665 2.83301H28.3333C29.1125 2.83301 29.7797 3.11068 30.3351 3.66601C30.8904 4.22134 31.1676 4.88812 31.1666 5.66634V22.6663C31.1666 23.4455 30.889 24.1128 30.3336 24.6681C29.7783 25.2234 29.1115 25.5006 28.3333 25.4997H8.49998L2.83331 31.1663ZM12.8562 20.1872L17 17.6726L21.1437 20.1872L20.0458 15.4768L23.7291 12.2893L18.8771 11.8997L17 7.43718L15.1229 11.8997L10.2708 12.2893L13.9541 15.4768L12.8562 20.1872Z" fill="white"/>
</g>
</svg>
