<svg width="21" height="22" viewBox="0 0 21 22" fill="none" xmlns="http://www.w3.org/2000/svg">
<g id="ph:copyright">
<path id="Vector" d="M10.4681 2.19629C8.78591 2.19629 7.1415 2.69512 5.7428 3.62969C4.34411 4.56427 3.25396 5.89262 2.61022 7.44676C1.96647 9.00091 1.79804 10.711 2.12621 12.3609C2.45439 14.0108 3.26445 15.5263 4.45394 16.7158C5.64343 17.9053 7.15893 18.7153 8.8088 19.0435C10.4587 19.3717 12.1688 19.2032 13.7229 18.5595C15.2771 17.9157 16.6054 16.8256 17.54 15.4269C18.4746 14.0282 18.9734 12.3838 18.9734 10.7016C18.971 8.44659 18.0742 6.28461 16.4796 4.69007C14.8851 3.09553 12.7231 2.19867 10.4681 2.19629ZM10.4681 17.8984C9.04471 17.8984 7.65328 17.4763 6.46977 16.6855C5.28626 15.8947 4.36383 14.7708 3.81912 13.4557C3.27441 12.1407 3.13189 10.6936 3.40958 9.29758C3.68727 7.90154 4.3727 6.61919 5.37919 5.6127C6.38569 4.6062 7.66803 3.92077 9.06408 3.64308C10.4601 3.36539 11.9072 3.50791 13.2222 4.05262C14.5373 4.59733 15.6612 5.51977 16.452 6.70328C17.2428 7.88678 17.6649 9.27821 17.6649 10.7016C17.6627 12.6097 16.9038 14.4389 15.5546 15.7881C14.2054 17.1373 12.3762 17.8963 10.4681 17.8984ZM7.85109 10.7016C7.85109 11.2509 8.02391 11.7862 8.34507 12.2318C8.66623 12.6774 9.11945 13.0106 9.64053 13.1843C10.1616 13.358 10.7241 13.3634 11.2484 13.1996C11.7727 13.0358 12.2322 12.7112 12.5617 12.2718C12.6659 12.133 12.821 12.0413 12.9929 12.0168C13.1647 11.9924 13.3393 12.0372 13.4781 12.1414C13.6169 12.2456 13.7086 12.4007 13.7331 12.5725C13.7576 12.7444 13.7128 12.9189 13.6085 13.0577C13.1141 13.7167 12.4248 14.2033 11.6385 14.4488C10.8521 14.6943 10.0084 14.6861 9.22687 14.4255C8.44537 14.1649 7.76566 13.665 7.28401 12.9967C6.80236 12.3284 6.54319 11.5254 6.54319 10.7016C6.54319 9.87779 6.80236 9.07486 7.28401 8.40652C7.76566 7.73817 8.44537 7.2383 9.22687 6.97768C10.0084 6.71707 10.8521 6.70893 11.6385 6.95441C12.4248 7.19989 13.1141 7.68655 13.6085 8.34547C13.6601 8.41421 13.6977 8.49243 13.7191 8.57568C13.7404 8.65893 13.7452 8.74558 13.7331 8.83067C13.721 8.91576 13.6922 8.99764 13.6485 9.07162C13.6047 9.1456 13.5468 9.21023 13.4781 9.26184C13.4094 9.31344 13.3311 9.351 13.2479 9.37238C13.1646 9.39375 13.078 9.39851 12.9929 9.3864C12.9078 9.37429 12.8259 9.34553 12.7519 9.30178C12.678 9.25803 12.6133 9.20013 12.5617 9.1314C12.2322 8.69198 11.7727 8.3674 11.2484 8.20363C10.7241 8.03985 10.1616 8.04519 9.64053 8.21888C9.11945 8.39258 8.66623 8.72582 8.34507 9.17141C8.02391 9.617 7.85109 10.1523 7.85109 10.7016Z" fill="white"/>
</g>
</svg>
