<svg width="20" height="20" viewBox="0 0 20 20" fill="none" xmlns="http://www.w3.org/2000/svg">
<g id="teenyicons:direction-solid" clip-path="url(#clip0_68_56)">
<path id="Vector" d="M0.929305 0.0524204C0.806747 -0.000363842 0.671168 -0.0151539 0.540112 0.00996403C0.409055 0.0350819 0.288552 0.0989517 0.194194 0.193309C0.0998367 0.287667 0.0359669 0.40817 0.010849 0.539227C-0.0142688 0.670283 0.000521168 0.805862 0.0533054 0.92842L8.0533 19.5951C8.10656 19.7194 8.19635 19.8245 8.31076 19.8966C8.42518 19.9687 8.5588 20.0043 8.69391 19.9986C8.82901 19.993 8.9592 19.9464 9.06721 19.865C9.17522 19.7837 9.25593 19.6714 9.29864 19.5431L11.86 11.8591L19.544 9.29909C19.6727 9.25664 19.7854 9.17596 19.8671 9.06781C19.9488 8.95965 19.9956 8.82917 20.0013 8.69374C20.0069 8.55832 19.9711 8.42439 19.8987 8.30981C19.8263 8.19523 19.7207 8.10544 19.596 8.05242L0.929305 0.0524204Z" fill="white"/>
</g>
<defs>
<clipPath id="clip0_68_56">
<rect width="20" height="20" fill="white"/>
</clipPath>
</defs>
</svg>
